<svg id="container" width="100%" xmlns="http://www.w3.org/2000/svg" style="max-width: 2390px;" viewBox="100 -62 2390 641" role="graphics-document document" aria-roledescription="timeline"><style>#container{font-family:"trebuchet ms",verdana,arial,sans-serif;font-size:16px;fill:#333;}@keyframes edge-animation-frame{from{stroke-dashoffset:0;}}@keyframes dash{to{stroke-dashoffset:0;}}#container .edge-animation-slow{stroke-dasharray:9,5!important;stroke-dashoffset:900;animation:dash 50s linear infinite;stroke-linecap:round;}#container .edge-animation-fast{stroke-dasharray:9,5!important;stroke-dashoffset:900;animation:dash 20s linear infinite;stroke-linecap:round;}#container .error-icon{fill:#552222;}#container .error-text{fill:#552222;stroke:#552222;}#container .edge-thickness-normal{stroke-width:1px;}#container .edge-thickness-thick{stroke-width:3.5px;}#container .edge-pattern-solid{stroke-dasharray:0;}#container .edge-thickness-invisible{stroke-width:0;fill:none;}#container .edge-pattern-dashed{stroke-dasharray:3;}#container .edge-pattern-dotted{stroke-dasharray:2;}#container .marker{fill:#333333;stroke:#333333;}#container .marker.cross{stroke:#333333;}#container svg{font-family:"trebuchet ms",verdana,arial,sans-serif;font-size:16px;}#container p{margin:0;}#container .edge{stroke-width:3;}#container .section--1 rect,#container .section--1 path,#container .section--1 circle,#container .section--1 path{fill:hsl(240, 100%, 76.2745098039%);}#container .section--1 text{fill:#ffffff;}#container .node-icon--1{font-size:40px;color:#ffffff;}#container .section-edge--1{stroke:hsl(240, 100%, 76.2745098039%);}#container .edge-depth--1{stroke-width:17;}#container .section--1 line{stroke:hsl(60, 100%, 86.2745098039%);stroke-width:3;}#container .lineWrapper line{stroke:#ffffff;}#container .disabled,#container .disabled circle,#container .disabled text{fill:lightgray;}#container .disabled text{fill:#efefef;}#container .section-0 rect,#container .section-0 path,#container .section-0 circle,#container .section-0 path{fill:hsl(60, 100%, 73.5294117647%);}#container .section-0 text{fill:black;}#container .node-icon-0{font-size:40px;color:black;}#container .section-edge-0{stroke:hsl(60, 100%, 73.5294117647%);}#container .edge-depth-0{stroke-width:14;}#container .section-0 line{stroke:hsl(240, 100%, 83.5294117647%);stroke-width:3;}#container .lineWrapper line{stroke:black;}#container .disabled,#container .disabled circle,#container .disabled text{fill:lightgray;}#container .disabled text{fill:#efefef;}#container .section-1 rect,#container .section-1 path,#container .section-1 circle,#container .section-1 path{fill:hsl(80, 100%, 76.2745098039%);}#container .section-1 text{fill:black;}#container .node-icon-1{font-size:40px;color:black;}#container .section-edge-1{stroke:hsl(80, 100%, 76.2745098039%);}#container .edge-depth-1{stroke-width:11;}#container .section-1 line{stroke:hsl(260, 100%, 86.2745098039%);stroke-width:3;}#container .lineWrapper line{stroke:black;}#container .disabled,#container .disabled circle,#container .disabled text{fill:lightgray;}#container .disabled text{fill:#efefef;}#container .section-2 rect,#container .section-2 path,#container .section-2 circle,#container .section-2 path{fill:hsl(270, 100%, 76.2745098039%);}#container .section-2 text{fill:#ffffff;}#container .node-icon-2{font-size:40px;color:#ffffff;}#container .section-edge-2{stroke:hsl(270, 100%, 76.2745098039%);}#container .edge-depth-2{stroke-width:8;}#container .section-2 line{stroke:hsl(90, 100%, 86.2745098039%);stroke-width:3;}#container .lineWrapper line{stroke:#ffffff;}#container .disabled,#container .disabled circle,#container .disabled text{fill:lightgray;}#container .disabled text{fill:#efefef;}#container .section-3 rect,#container .section-3 path,#container .section-3 circle,#container .section-3 path{fill:hsl(300, 100%, 76.2745098039%);}#container .section-3 text{fill:black;}#container .node-icon-3{font-size:40px;color:black;}#container .section-edge-3{stroke:hsl(300, 100%, 76.2745098039%);}#container .edge-depth-3{stroke-width:5;}#container .section-3 line{stroke:hsl(120, 100%, 86.2745098039%);stroke-width:3;}#container .lineWrapper line{stroke:black;}#container .disabled,#container .disabled circle,#container .disabled text{fill:lightgray;}#container .disabled text{fill:#efefef;}#container .section-4 rect,#container .section-4 path,#container .section-4 circle,#container .section-4 path{fill:hsl(330, 100%, 76.2745098039%);}#container .section-4 text{fill:black;}#container .node-icon-4{font-size:40px;color:black;}#container .section-edge-4{stroke:hsl(330, 100%, 76.2745098039%);}#container .edge-depth-4{stroke-width:2;}#container .section-4 line{stroke:hsl(150, 100%, 86.2745098039%);stroke-width:3;}#container .lineWrapper line{stroke:black;}#container .disabled,#container .disabled circle,#container .disabled text{fill:lightgray;}#container .disabled text{fill:#efefef;}#container .section-5 rect,#container .section-5 path,#container .section-5 circle,#container .section-5 path{fill:hsl(0, 100%, 76.2745098039%);}#container .section-5 text{fill:black;}#container .node-icon-5{font-size:40px;color:black;}#container .section-edge-5{stroke:hsl(0, 100%, 76.2745098039%);}#container .edge-depth-5{stroke-width:-1;}#container .section-5 line{stroke:hsl(180, 100%, 86.2745098039%);stroke-width:3;}#container .lineWrapper line{stroke:black;}#container .disabled,#container .disabled circle,#container .disabled text{fill:lightgray;}#container .disabled text{fill:#efefef;}#container .section-6 rect,#container .section-6 path,#container .section-6 circle,#container .section-6 path{fill:hsl(30, 100%, 76.2745098039%);}#container .section-6 text{fill:black;}#container .node-icon-6{font-size:40px;color:black;}#container .section-edge-6{stroke:hsl(30, 100%, 76.2745098039%);}#container .edge-depth-6{stroke-width:-4;}#container .section-6 line{stroke:hsl(210, 100%, 86.2745098039%);stroke-width:3;}#container .lineWrapper line{stroke:black;}#container .disabled,#container .disabled circle,#container .disabled text{fill:lightgray;}#container .disabled text{fill:#efefef;}#container .section-7 rect,#container .section-7 path,#container .section-7 circle,#container .section-7 path{fill:hsl(90, 100%, 76.2745098039%);}#container .section-7 text{fill:black;}#container .node-icon-7{font-size:40px;color:black;}#container .section-edge-7{stroke:hsl(90, 100%, 76.2745098039%);}#container .edge-depth-7{stroke-width:-7;}#container .section-7 line{stroke:hsl(270, 100%, 86.2745098039%);stroke-width:3;}#container .lineWrapper line{stroke:black;}#container .disabled,#container .disabled circle,#container .disabled text{fill:lightgray;}#container .disabled text{fill:#efefef;}#container .section-8 rect,#container .section-8 path,#container .section-8 circle,#container .section-8 path{fill:hsl(150, 100%, 76.2745098039%);}#container .section-8 text{fill:black;}#container .node-icon-8{font-size:40px;color:black;}#container .section-edge-8{stroke:hsl(150, 100%, 76.2745098039%);}#container .edge-depth-8{stroke-width:-10;}#container .section-8 line{stroke:hsl(330, 100%, 86.2745098039%);stroke-width:3;}#container .lineWrapper line{stroke:black;}#container .disabled,#container .disabled circle,#container .disabled text{fill:lightgray;}#container .disabled text{fill:#efefef;}#container .section-9 rect,#container .section-9 path,#container .section-9 circle,#container .section-9 path{fill:hsl(180, 100%, 76.2745098039%);}#container .section-9 text{fill:black;}#container .node-icon-9{font-size:40px;color:black;}#container .section-edge-9{stroke:hsl(180, 100%, 76.2745098039%);}#container .edge-depth-9{stroke-width:-13;}#container .section-9 line{stroke:hsl(0, 100%, 86.2745098039%);stroke-width:3;}#container .lineWrapper line{stroke:black;}#container .disabled,#container .disabled circle,#container .disabled text{fill:lightgray;}#container .disabled text{fill:#efefef;}#container .section-10 rect,#container .section-10 path,#container .section-10 circle,#container .section-10 path{fill:hsl(210, 100%, 76.2745098039%);}#container .section-10 text{fill:black;}#container .node-icon-10{font-size:40px;color:black;}#container .section-edge-10{stroke:hsl(210, 100%, 76.2745098039%);}#container .edge-depth-10{stroke-width:-16;}#container .section-10 line{stroke:hsl(30, 100%, 86.2745098039%);stroke-width:3;}#container .lineWrapper line{stroke:black;}#container .disabled,#container .disabled circle,#container .disabled text{fill:lightgray;}#container .disabled text{fill:#efefef;}#container .section-root rect,#container .section-root path,#container .section-root circle{fill:hsl(240, 100%, 46.2745098039%);}#container .section-root text{fill:#ffffff;}#container .icon-container{height:100%;display:flex;justify-content:center;align-items:center;}#container .edge{fill:none;}#container .eventWrapper{filter:brightness(120%);}#container :root{--mermaid-font-family:"trebuchet ms",verdana,arial,sans-serif;}</style><g></g><g></g><defs><marker id="arrowhead" refX="5" refY="2" markerWidth="6" markerHeight="4" orient="auto"><path d="M 0,0 V 4 L6,2 Z"></path></marker></defs><g class="taskWrapper" transform="translate(200, 50)"><g class="timeline-node section--1"><g><path id="node-undefined" class="node-bkg node-undefined" d="M0 62.8 v-57.8 q0,-5 5,-5 h180 q5,0 5,5 v62.8 H0 Z"></path><line class="node-line--1" x1="0" y1="67.8" x2="190" y2="67.8"></line></g><g transform="translate(95, 10)"><text dy="1em" alignment-baseline="middle" dominant-baseline="middle" text-anchor="middle"><tspan x="0" dy="1em">2020-03-17</tspan></text></g></g></g><g class="lineWrapper"><line x1="295" y1="117.8" x2="295" y2="528.9999908447267" stroke-width="2" stroke="black" marker-end="url(#arrowhead)" stroke-dasharray="5,5"></line></g><g class="eventWrapper" transform="translate(200, 250)"><g class="timeline-node section--1"><g><path id="node-undefined" class="node-bkg node-undefined" d="M0 45 v-40 q0,-5 5,-5 h180 q5,0 5,5 v45 H0 Z"></path><line class="node-line--1" x1="0" y1="50" x2="190" y2="50"></line></g><g transform="translate(95, 10)"><text dy="1em" alignment-baseline="middle" dominant-baseline="middle" text-anchor="middle"><tspan x="0" dy="1em">Coronavirus</tspan></text></g></g></g><g class="eventWrapper" transform="translate(200, 310)"><g class="timeline-node section--1"><g><path id="node-undefined" class="node-bkg node-undefined" d="M0 113.19999389648437 v-108.19999389648437 q0,-5 5,-5 h180 q5,0 5,5 v113.19999389648437 H0 Z"></path><line class="node-line--1" x1="0" y1="118.19999389648437" x2="190" y2="118.19999389648437"></line></g><g transform="translate(95, 10)"><text dy="1em" alignment-baseline="middle" dominant-baseline="middle" text-anchor="middle"><tspan x="0" dy="1em">Fermeture</tspan><tspan x="0" dy="1.1em">imminente   des</tspan><tspan x="0" dy="1.1em">unités   de</tspan><tspan x="0" dy="1.1em">production   de</tspan><tspan x="0" dy="1.1em">Volkswagen</tspan></text></g></g></g><g class="taskWrapper" transform="translate(400, 50)"><g class="timeline-node section-0"><g><path id="node-undefined" class="node-bkg node-undefined" d="M0 62.8 v-57.8 q0,-5 5,-5 h180 q5,0 5,5 v62.8 H0 Z"></path><line class="node-line-0" x1="0" y1="67.8" x2="190" y2="67.8"></line></g><g transform="translate(95, 10)"><text dy="1em" alignment-baseline="middle" dominant-baseline="middle" text-anchor="middle"><tspan x="0" dy="1em">2020-04-20</tspan></text></g></g></g><g class="lineWrapper"><line x1="495" y1="117.8" x2="495" y2="528.9999908447267" stroke-width="2" stroke="black" marker-end="url(#arrowhead)" stroke-dasharray="5,5"></line></g><g class="eventWrapper" transform="translate(400, 250)"><g class="timeline-node section-0"><g><path id="node-undefined" class="node-bkg node-undefined" d="M0 45 v-40 q0,-5 5,-5 h180 q5,0 5,5 v45 H0 Z"></path><line class="node-line-0" x1="0" y1="50" x2="190" y2="50"></line></g><g transform="translate(95, 10)"><text dy="1em" alignment-baseline="middle" dominant-baseline="middle" text-anchor="middle"><tspan x="0" dy="1em">Dieselgate</tspan></text></g></g></g><g class="eventWrapper" transform="translate(400, 310)"><g class="timeline-node section-0"><g><path id="node-undefined" class="node-bkg node-undefined" d="M0 77.99999694824218 v-72.99999694824218 q0,-5 5,-5 h180 q5,0 5,5 v77.99999694824218 H0 Z"></path><line class="node-line-0" x1="0" y1="82.99999694824218" x2="190" y2="82.99999694824218"></line></g><g transform="translate(95, 10)"><text dy="1em" alignment-baseline="middle" dominant-baseline="middle" text-anchor="middle"><tspan x="0" dy="1em">Plus   de   200.000</tspan><tspan x="0" dy="1.1em">clients   indemnisés</tspan><tspan x="0" dy="1.1em">par   Volkswagen</tspan></text></g></g></g><g class="taskWrapper" transform="translate(600, 50)"><g class="timeline-node section-1"><g><path id="node-undefined" class="node-bkg node-undefined" d="M0 62.8 v-57.8 q0,-5 5,-5 h180 q5,0 5,5 v62.8 H0 Z"></path><line class="node-line-1" x1="0" y1="67.8" x2="190" y2="67.8"></line></g><g transform="translate(95, 10)"><text dy="1em" alignment-baseline="middle" dominant-baseline="middle" text-anchor="middle"><tspan x="0" dy="1em">2020-05-05</tspan></text></g></g></g><g class="lineWrapper"><line x1="695" y1="117.8" x2="695" y2="528.9999908447267" stroke-width="2" stroke="black" marker-end="url(#arrowhead)" stroke-dasharray="5,5"></line></g><g class="eventWrapper" transform="translate(600, 250)"><g class="timeline-node section-1"><g><path id="node-undefined" class="node-bkg node-undefined" d="M0 45 v-40 q0,-5 5,-5 h180 q5,0 5,5 v45 H0 Z"></path><line class="node-line-1" x1="0" y1="50" x2="190" y2="50"></line></g><g transform="translate(95, 10)"><text dy="1em" alignment-baseline="middle" dominant-baseline="middle" text-anchor="middle"><tspan x="0" dy="1em">Dieselgate</tspan></text></g></g></g><g class="eventWrapper" transform="translate(600, 310)"><g class="timeline-node section-1"><g><path id="node-undefined" class="node-bkg node-undefined" d="M0 148.39999084472657 v-143.39999084472657 q0,-5 5,-5 h180 q5,0 5,5 v148.39999084472657 H0 Z"></path><line class="node-line-1" x1="0" y1="153.39999084472657" x2="190" y2="153.39999084472657"></line></g><g transform="translate(95, 10)"><text dy="1em" alignment-baseline="middle" dominant-baseline="middle" text-anchor="middle"><tspan x="0" dy="1em">Volkswagen</tspan><tspan x="0" dy="1.1em">contraint   de</tspan><tspan x="0" dy="1.1em">rembourser   aux</tspan><tspan x="0" dy="1.1em">particuliers   le   prix</tspan><tspan x="0" dy="1.1em">dachat   de   voitures</tspan><tspan x="0" dy="1.1em">aux   moteurs</tspan><tspan x="0" dy="1.1em">truqués</tspan></text></g></g></g><g class="taskWrapper" transform="translate(800, 50)"><g class="timeline-node section-2"><g><path id="node-undefined" class="node-bkg node-undefined" d="M0 62.8 v-57.8 q0,-5 5,-5 h180 q5,0 5,5 v62.8 H0 Z"></path><line class="node-line-2" x1="0" y1="67.8" x2="190" y2="67.8"></line></g><g transform="translate(95, 10)"><text dy="1em" alignment-baseline="middle" dominant-baseline="middle" text-anchor="middle"><tspan x="0" dy="1em">2020-09-30</tspan></text></g></g></g><g class="lineWrapper"><line x1="895" y1="117.8" x2="895" y2="528.9999908447267" stroke-width="2" stroke="black" marker-end="url(#arrowhead)" stroke-dasharray="5,5"></line></g><g class="eventWrapper" transform="translate(800, 250)"><g class="timeline-node section-2"><g><path id="node-undefined" class="node-bkg node-undefined" d="M0 45 v-40 q0,-5 5,-5 h180 q5,0 5,5 v45 H0 Z"></path><line class="node-line-2" x1="0" y1="50" x2="190" y2="50"></line></g><g transform="translate(95, 10)"><text dy="1em" alignment-baseline="middle" dominant-baseline="middle" text-anchor="middle"><tspan x="0" dy="1em">Dieselgate</tspan></text></g></g></g><g class="eventWrapper" transform="translate(800, 310)"><g class="timeline-node section-2"><g><path id="node-undefined" class="node-bkg node-undefined" d="M0 95.59999542236328 v-90.59999542236328 q0,-5 5,-5 h180 q5,0 5,5 v95.59999542236328 H0 Z"></path><line class="node-line-2" x1="0" y1="100.59999542236328" x2="190" y2="100.59999542236328"></line></g><g transform="translate(95, 10)"><text dy="1em" alignment-baseline="middle" dominant-baseline="middle" text-anchor="middle"><tspan x="0" dy="1em">un   premier   patron</tspan><tspan x="0" dy="1.1em">automobile   devant</tspan><tspan x="0" dy="1.1em">les   juges   en</tspan><tspan x="0" dy="1.1em">Allemagne</tspan></text></g></g></g><g class="taskWrapper" transform="translate(1000, 50)"><g class="timeline-node section-3"><g><path id="node-undefined" class="node-bkg node-undefined" d="M0 62.8 v-57.8 q0,-5 5,-5 h180 q5,0 5,5 v62.8 H0 Z"></path><line class="node-line-3" x1="0" y1="67.8" x2="190" y2="67.8"></line></g><g transform="translate(95, 10)"><text dy="1em" alignment-baseline="middle" dominant-baseline="middle" text-anchor="middle"><tspan x="0" dy="1em">2021-02-11</tspan></text></g></g></g><g class="lineWrapper"><line x1="1095" y1="117.8" x2="1095" y2="528.9999908447267" stroke-width="2" stroke="black" marker-end="url(#arrowhead)" stroke-dasharray="5,5"></line></g><g class="eventWrapper" transform="translate(1000, 250)"><g class="timeline-node section-3"><g><path id="node-undefined" class="node-bkg node-undefined" d="M0 45 v-40 q0,-5 5,-5 h180 q5,0 5,5 v45 H0 Z"></path><line class="node-line-3" x1="0" y1="50" x2="190" y2="50"></line></g><g transform="translate(95, 10)"><text dy="1em" alignment-baseline="middle" dominant-baseline="middle" text-anchor="middle"><tspan x="0" dy="1em">Automobile</tspan></text></g></g></g><g class="eventWrapper" transform="translate(1000, 310)"><g class="timeline-node section-3"><g><path id="node-undefined" class="node-bkg node-undefined" d="M0 95.59999542236328 v-90.59999542236328 q0,-5 5,-5 h180 q5,0 5,5 v95.59999542236328 H0 Z"></path><line class="node-line-3" x1="0" y1="100.59999542236328" x2="190" y2="100.59999542236328"></line></g><g transform="translate(95, 10)"><text dy="1em" alignment-baseline="middle" dominant-baseline="middle" text-anchor="middle"><tspan x="0" dy="1em">Volkswagen   sassocie</tspan><tspan x="0" dy="1.1em">à   Microsoft   pour</tspan><tspan x="0" dy="1.1em">développer   la</tspan><tspan x="0" dy="1.1em">conduite   autonome</tspan></text></g></g></g><g class="taskWrapper" transform="translate(1200, 50)"><g class="timeline-node section-4"><g><path id="node-undefined" class="node-bkg node-undefined" d="M0 62.8 v-57.8 q0,-5 5,-5 h180 q5,0 5,5 v62.8 H0 Z"></path><line class="node-line-4" x1="0" y1="67.8" x2="190" y2="67.8"></line></g><g transform="translate(95, 10)"><text dy="1em" alignment-baseline="middle" dominant-baseline="middle" text-anchor="middle"><tspan x="0" dy="1em">2021-07-08</tspan></text></g></g></g><g class="lineWrapper"><line x1="1295" y1="117.8" x2="1295" y2="528.9999908447267" stroke-width="2" stroke="black" marker-end="url(#arrowhead)" stroke-dasharray="5,5"></line></g><g class="eventWrapper" transform="translate(1200, 250)"><g class="timeline-node section-4"><g><path id="node-undefined" class="node-bkg node-undefined" d="M0 45 v-40 q0,-5 5,-5 h180 q5,0 5,5 v45 H0 Z"></path><line class="node-line-4" x1="0" y1="50" x2="190" y2="50"></line></g><g transform="translate(95, 10)"><text dy="1em" alignment-baseline="middle" dominant-baseline="middle" text-anchor="middle"><tspan x="0" dy="1em">Pollution</tspan></text></g></g></g><g class="eventWrapper" transform="translate(1200, 310)"><g class="timeline-node section-4"><g><path id="node-undefined" class="node-bkg node-undefined" d="M0 95.59999542236328 v-90.59999542236328 q0,-5 5,-5 h180 q5,0 5,5 v95.59999542236328 H0 Z"></path><line class="node-line-4" x1="0" y1="100.59999542236328" x2="190" y2="100.59999542236328"></line></g><g transform="translate(95, 10)"><text dy="1em" alignment-baseline="middle" dominant-baseline="middle" text-anchor="middle"><tspan x="0" dy="1em">LUE   inflige   une</tspan><tspan x="0" dy="1.1em">amende   de   875</tspan><tspan x="0" dy="1.1em">millions   deuros   à</tspan><tspan x="0" dy="1.1em">BMW   et   Volkswagen</tspan></text></g></g></g><g class="taskWrapper" transform="translate(1400, 50)"><g class="timeline-node section-5"><g><path id="node-undefined" class="node-bkg node-undefined" d="M0 62.8 v-57.8 q0,-5 5,-5 h180 q5,0 5,5 v62.8 H0 Z"></path><line class="node-line-5" x1="0" y1="67.8" x2="190" y2="67.8"></line></g><g transform="translate(95, 10)"><text dy="1em" alignment-baseline="middle" dominant-baseline="middle" text-anchor="middle"><tspan x="0" dy="1em">2021-08-06</tspan></text></g></g></g><g class="lineWrapper"><line x1="1495" y1="117.8" x2="1495" y2="528.9999908447267" stroke-width="2" stroke="black" marker-end="url(#arrowhead)" stroke-dasharray="5,5"></line></g><g class="eventWrapper" transform="translate(1400, 250)"><g class="timeline-node section-5"><g><path id="node-undefined" class="node-bkg node-undefined" d="M0 45 v-40 q0,-5 5,-5 h180 q5,0 5,5 v45 H0 Z"></path><line class="node-line-5" x1="0" y1="50" x2="190" y2="50"></line></g><g transform="translate(95, 10)"><text dy="1em" alignment-baseline="middle" dominant-baseline="middle" text-anchor="middle"><tspan x="0" dy="1em">Voiture   électrique</tspan></text></g></g></g><g class="eventWrapper" transform="translate(1400, 310)"><g class="timeline-node section-5"><g><path id="node-undefined" class="node-bkg node-undefined" d="M0 77.99999694824218 v-72.99999694824218 q0,-5 5,-5 h180 q5,0 5,5 v77.99999694824218 H0 Z"></path><line class="node-line-5" x1="0" y1="82.99999694824218" x2="190" y2="82.99999694824218"></line></g><g transform="translate(95, 10)"><text dy="1em" alignment-baseline="middle" dominant-baseline="middle" text-anchor="middle"><tspan x="0" dy="1em">Biden   veut   que   les</tspan><tspan x="0" dy="1.1em">Etats-Unis   prennent</tspan><tspan x="0" dy="1.1em">le   volant</tspan></text></g></g></g><g class="taskWrapper" transform="translate(1600, 50)"><g class="timeline-node section-6"><g><path id="node-undefined" class="node-bkg node-undefined" d="M0 62.8 v-57.8 q0,-5 5,-5 h180 q5,0 5,5 v62.8 H0 Z"></path><line class="node-line-6" x1="0" y1="67.8" x2="190" y2="67.8"></line></g><g transform="translate(95, 10)"><text dy="1em" alignment-baseline="middle" dominant-baseline="middle" text-anchor="middle"><tspan x="0" dy="1em">2021-10-06</tspan></text></g></g></g><g class="lineWrapper"><line x1="1695" y1="117.8" x2="1695" y2="528.9999908447267" stroke-width="2" stroke="black" marker-end="url(#arrowhead)" stroke-dasharray="5,5"></line></g><g class="eventWrapper" transform="translate(1600, 250)"><g class="timeline-node section-6"><g><path id="node-undefined" class="node-bkg node-undefined" d="M0 45 v-40 q0,-5 5,-5 h180 q5,0 5,5 v45 H0 Z"></path><line class="node-line-6" x1="0" y1="50" x2="190" y2="50"></line></g><g transform="translate(95, 10)"><text dy="1em" alignment-baseline="middle" dominant-baseline="middle" text-anchor="middle"><tspan x="0" dy="1em">Automobile</tspan></text></g></g></g><g class="eventWrapper" transform="translate(1600, 310)"><g class="timeline-node section-6"><g><path id="node-undefined" class="node-bkg node-undefined" d="M0 113.19999389648437 v-108.19999389648437 q0,-5 5,-5 h180 q5,0 5,5 v113.19999389648437 H0 Z"></path><line class="node-line-6" x1="0" y1="118.19999389648437" x2="190" y2="118.19999389648437"></line></g><g transform="translate(95, 10)"><text dy="1em" alignment-baseline="middle" dominant-baseline="middle" text-anchor="middle"><tspan x="0" dy="1em">Hausse   des   ventes</tspan><tspan x="0" dy="1.1em">des   voitures   neuves</tspan><tspan x="0" dy="1.1em">au   Maroc,   crainte</tspan><tspan x="0" dy="1.1em">dune   rupture   de</tspan><tspan x="0" dy="1.1em">stock</tspan></text></g></g></g><g class="taskWrapper" transform="translate(1800, 50)"><g class="timeline-node section-7"><g><path id="node-undefined" class="node-bkg node-undefined" d="M0 62.8 v-57.8 q0,-5 5,-5 h180 q5,0 5,5 v62.8 H0 Z"></path><line class="node-line-7" x1="0" y1="67.8" x2="190" y2="67.8"></line></g><g transform="translate(95, 10)"><text dy="1em" alignment-baseline="middle" dominant-baseline="middle" text-anchor="middle"><tspan x="0" dy="1em">2025-09-29</tspan></text></g></g></g><g class="lineWrapper"><line x1="1895" y1="117.8" x2="1895" y2="528.9999908447267" stroke-width="2" stroke="black" marker-end="url(#arrowhead)" stroke-dasharray="5,5"></line></g><g class="eventWrapper" transform="translate(1800, 250)"><g class="timeline-node section-7"><g><path id="node-undefined" class="node-bkg node-undefined" d="M0 45 v-40 q0,-5 5,-5 h180 q5,0 5,5 v45 H0 Z"></path><line class="node-line-7" x1="0" y1="50" x2="190" y2="50"></line></g><g transform="translate(95, 10)"><text dy="1em" alignment-baseline="middle" dominant-baseline="middle" text-anchor="middle"><tspan x="0" dy="1em">Volkswagen   Maroc</tspan></text></g></g></g><g class="eventWrapper" transform="translate(1800, 310)"><g class="timeline-node section-7"><g><path id="node-undefined" class="node-bkg node-undefined" d="M0 77.99999694824218 v-72.99999694824218 q0,-5 5,-5 h180 q5,0 5,5 v77.99999694824218 H0 Z"></path><line class="node-line-7" x1="0" y1="82.99999694824218" x2="190" y2="82.99999694824218"></line></g><g transform="translate(95, 10)"><text dy="1em" alignment-baseline="middle" dominant-baseline="middle" text-anchor="middle"><tspan x="0" dy="1em">la   démocratisation</tspan><tspan x="0" dy="1.1em">du   SUV   urbain   avec</tspan><tspan x="0" dy="1.1em">le   T-Cross   et   le   Taigo</tspan></text></g></g></g><g class="taskWrapper" transform="translate(2000, 50)"><g class="timeline-node section-8"><g><path id="node-undefined" class="node-bkg node-undefined" d="M0 62.8 v-57.8 q0,-5 5,-5 h180 q5,0 5,5 v62.8 H0 Z"></path><line class="node-line-8" x1="0" y1="67.8" x2="190" y2="67.8"></line></g><g transform="translate(95, 10)"><text dy="1em" alignment-baseline="middle" dominant-baseline="middle" text-anchor="middle"><tspan x="0" dy="1em">2025-12-14</tspan></text></g></g></g><g class="lineWrapper"><line x1="2095" y1="117.8" x2="2095" y2="528.9999908447267" stroke-width="2" stroke="black" marker-end="url(#arrowhead)" stroke-dasharray="5,5"></line></g><g class="eventWrapper" transform="translate(2000, 250)"><g class="timeline-node section-8"><g><path id="node-undefined" class="node-bkg node-undefined" d="M0 95.59999542236328 v-90.59999542236328 q0,-5 5,-5 h180 q5,0 5,5 v95.59999542236328 H0 Z"></path><line class="node-line-8" x1="0" y1="100.59999542236328" x2="190" y2="100.59999542236328"></line></g><g transform="translate(95, 10)"><text dy="1em" alignment-baseline="middle" dominant-baseline="middle" text-anchor="middle"><tspan x="0" dy="1em">Les   ventes</tspan><tspan x="0" dy="1.1em">mondiales   de</tspan><tspan x="0" dy="1.1em">Volkswagen   en</tspan><tspan x="0" dy="1.1em">baisse   en   2025</tspan></text></g></g></g><text x="845" font-size="4ex" font-weight="bold" y="20">Chronologie des événements liés à Volkswagen</text><g class="lineWrapper"><line x1="150" y1="167.8" x2="2440" y2="167.8" stroke-width="4" stroke="black" marker-end="url(#arrowhead)"></line></g></svg>